<svg xmlns="http://www.w3.org/2000/svg" xmlns:xlink="http://www.w3.org/1999/xlink" id="Calque_1" x="0px" y="0px" width="283.5px" height="283.5px" viewBox="0 0 283.5 283.5" style="enable-background:new 0 0 283.5 283.5;" xml:space="preserve"><style type="text/css">	.st0{fill:#FF5722;}</style><path class="st0" d="M234.7,188.2c-10.6,0-20.3,3.6-28.1,9.5l-18.4-18.4v-75.5l18.3-18.3c7.8,6,17.6,9.6,28.2,9.6 c25.7,0,46.5-20.8,46.5-46.5S260.4,2.3,234.7,2.3c-25.7,0-46.5,20.8-46.5,46.5c0,10.6,3.6,20.4,9.6,28.2l-18.2,18.2H104L85.7,76.9 c6-7.8,9.5-17.5,9.5-28.1c0-25.7-20.8-46.5-46.5-46.5S2.3,23.1,2.3,48.8s20.8,46.5,46.5,46.5c10.6,0,20.3-3.6,28.1-9.5l18.4,18.4 v75.5L77,197.8c-7.8-6-17.6-9.6-28.2-9.6c-25.7,0-46.5,20.8-46.5,46.5c0,25.7,20.8,46.5,46.5,46.5s46.5-20.8,46.5-46.5 c0-10.6-3.6-20.4-9.6-28.2l18.3-18.3h75.3l18.4,18.4c-6,7.8-9.5,17.5-9.5,28.1c0,25.7,20.8,46.5,46.5,46.5 c25.7,0,46.5-20.8,46.5-46.5C281.2,209,260.4,188.2,234.7,188.2z"></path></svg>